<?xml version="1.0" encoding="utf-8"?>
<!-- Generator: Adobe Illustrator 24.1.1, SVG Export Plug-In . SVG Version: 6.00 Build 0)  -->
<svg version="1.1" id="Layer_1" xmlns="http://www.w3.org/2000/svg" xmlns:xlink="http://www.w3.org/1999/xlink" x="0px" y="0px"
	 viewBox="0 0 512 512" style="enable-background:new 0 0 512 512;" xml:space="preserve">
<style type="text/css">
	.st0{fill:#52218A;}
	.st1{fill:#6C33AF;}
	.st2{fill:#854CC7;}
	.st3{fill:#B179F1;}
</style>
<g>
	<path class="st0" d="M74,402.1c-6.1,5.2-14.7,6.6-22.1,3.5l-38.8-16.3C5.2,386,0,378.3,0,369.8V142.2c0-8.6,5.2-16.3,13.1-19.6
		l38.8-16c7.4-3.1,16-1.8,22.1,3.5l8.7,7.2c-3.6-2.6-8.3-2.9-12.3-0.9c-3.9,2-6.4,6.1-6.4,10.5v258.1c0,4.4,2.5,8.5,6.4,10.5
		c3.9,2,8.7,1.7,12.3-0.9L74,402.1"/>
	<path class="st1" d="M13.1,389.3C5.2,386,0,378.3,0,369.8V368c0.1,5,3.2,9.5,7.9,11.4c4.7,1.8,10,0.6,13.5-3.1L352,10.7
		c9.6-9.5,24.2-12,36.4-6.2l105.5,50.8C505,60.6,512,71.8,512,84.1v1.2c0-7.8-4.5-14.9-11.6-18.3c-7.1-3.3-15.4-2.3-21.4,2.6
		l-396.3,325l-8.7,7.5c-6.1,5.2-14.7,6.6-22.1,3.5L13.1,389.3"/>
	<path class="st2" d="M13.1,122.7C5.2,126,0,133.7,0,142.2v1.8c0.1-5,3.2-9.5,7.9-11.4c4.7-1.8,10-0.6,13.5,3.1L352,501.3
		c9.6,9.5,24.2,12,36.4,6.2l105.5-50.8c11.1-5.3,18.1-16.5,18.1-28.9v-1.2c0,7.8-4.5,14.9-11.6,18.3c-7.1,3.3-15.4,2.3-21.4-2.6
		l-396.3-325l-8.7-7.5c-6.2-5.1-14.7-6.4-22.1-3.2L13.1,122.7"/>
	<path class="st3" d="M388.4,507.5c-12.2,5.8-26.8,3.4-36.4-6.2c5.4,5.3,13.4,6.9,20.4,4c7-2.9,11.6-9.7,11.6-17.3v-464
		c0-7.6-4.5-14.5-11.5-17.4c-7-2.9-15.1-1.4-20.5,4c9.6-9.5,24.2-12,36.4-6.2l105.5,50.7C505,60.5,512,71.8,512,84.1V428
		c0,12.3-7,23.5-18.1,28.9L388.4,507.5"/>
	<g>
		<defs>
			<path id="SVGID_1_" d="M352,501.3c4.2,4.2,9.6,7.2,15.4,8.5c2.3,0.5,4.7,0.8,7.1,0.8c4.8,0,9.5-1.1,13.8-3.1c0,0-0.1,0-0.1,0
				c0,0,0,0,0,0c0,0-0.1,0-0.1,0.1c-4.3,2-8.9,3-13.5,3c0,0,0,0,0,0l0,0l0,0c0,0,0,0,0,0C366.3,510.7,358.1,507.4,352,501.3
				 M0,369.8c0,0.5,0,1.1,0,1.6c0.7,8,5.7,14.9,13.1,18C5.2,386,0,378.3,0,369.8 M181.9,313.3l-99.3,81.4L181.9,313.3L181.9,313.3
				 M384,147.6L251.8,256L384,364.4V147.6 M60.1,104.8c-1.8,0-3.6,0.2-5.4,0.7c-1,0.2-1.9,0.5-2.8,1l-38.8,16.3
				c-7.4,3.1-12.5,10-13.1,18c0,0.5,0,1.1,0,1.6l0,0c0-8.6,5.2-16.3,13.1-19.6l38.8-16c2.7-1.2,5.6-1.7,8.4-1.7
				c4.9,0,9.7,1.7,13.7,4.9l8.7,7.5l99.3,81.4l0,0l-99.3-81.4l-8.7-7.5C70.1,106.5,65.1,104.8,60.1,104.8 M374.5,1.3
				c-3.4,0-6.8,0.5-10,1.6c-4.7,1.6-9,4.2-12.5,7.7l0,0l0,0l0,0C358.1,4.6,366.3,1.4,374.5,1.3c4.7,0,9.5,1.1,13.9,3.2l105.5,50.7
				C505,60.5,512,71.8,512,84.1V428l0,0V84.1c0-12.3-7-23.5-18.1-28.9L388.4,4.5C384,2.4,379.3,1.3,374.5,1.3"/>
		</defs>
		<clipPath id="SVGID_2_">
			<use xlink:href="#SVGID_1_"  style="overflow:visible;"/>
		</clipPath>
		<g transform="matrix(1 0 0 1 0 3.051758e-05)" style="clip-path:url(#SVGID_2_);">
			
				<image style="overflow:visible;" width="536" height="533" xlink:href="3DB92462.jpg"  transform="matrix(0.96 0 0 -0.96 -1.317 511.6454)">
			</image>
		</g>
	</g>
	<g>
		<defs>
			<path id="SVGID_3_" d="M12.3,131.8c-1.5,0-3,0.3-4.4,0.8C3.2,134.5,0.1,139,0,144v224c0.1,5,3.2,9.5,7.9,11.4
				c1.4,0.6,3,0.8,4.5,0.8c3.4,0,6.6-1.4,9-3.9L64,329.1V182.9l-42.7-47.2C19,133.2,15.7,131.8,12.3,131.8"/>
		</defs>
		<clipPath id="SVGID_4_">
			<use xlink:href="#SVGID_3_"  style="overflow:visible;"/>
		</clipPath>
		<g style="clip-path:url(#SVGID_4_);">
			
				<image style="overflow:visible;" width="70" height="262" xlink:href="3DB92466.jpg"  transform="matrix(0.96 0 0 -0.96 -1.317 382.0454)">
			</image>
		</g>
	</g>
	<g>
		<defs>
			<path id="SVGID_5_" d="M130.1,256L64,329.2v-0.1l-42.7,47.2c-2.4,2.5-5.7,3.9-9,3.9c-1.5,0-3-0.3-4.5-0.8
				C3.2,377.5,0.1,373,0,368v1.8l0,0c0,8.6,5.2,16.3,13.1,19.6l0,0l38.8,16c0.9,0.4,1.9,0.7,2.8,1c1.8,0.5,3.6,0.7,5.4,0.7
				c5,0,10-1.8,13.9-5.1l8.7-7.2l99.3-81.4L130.1,256 M365.2,5.2c-4.9,0-9.6,1.9-13.2,5.5l0,0L182,198.7l0,0l0,0l69.9,57.3
				L384,147.6V24.1c0-7.6-4.5-14.5-11.5-17.4C370.1,5.7,367.7,5.2,365.2,5.2"/>
		</defs>
		<clipPath id="SVGID_6_">
			<use xlink:href="#SVGID_5_"  style="overflow:visible;"/>
		</clipPath>
		<g style="clip-path:url(#SVGID_6_);">
			
				<image style="overflow:visible;" width="403" height="421" xlink:href="3DB92461.jpg"  transform="matrix(0.96 0 0 -0.96 -1.317 407.9654)">
			</image>
		</g>
	</g>
	<g>
		<defs>
			<path id="SVGID_7_" d="M374.6,510.7C374.6,510.7,374.6,510.7,374.6,510.7L374.6,510.7C374.6,510.7,374.6,510.7,374.6,510.7
				 M388.1,507.7c-4.3,2-8.9,3-13.5,3C379.2,510.7,383.8,509.7,388.1,507.7 M388.3,507.6C388.3,507.6,388.3,507.6,388.3,507.6
				C388.3,507.6,388.3,507.6,388.3,507.6 M60.3,104.9c-2.8,0-5.7,0.6-8.4,1.7l-38.8,16C5.2,126,0,133.7,0,142.2v1.8
				c0.1-5,3.2-9.5,7.9-11.4c1.4-0.6,3-0.8,4.4-0.8c3.4,0,6.6,1.4,9,3.9L64,182.9v-0.1l66.2,73.2l0,0l51.8,57.2l0,0l0,0l170,188.1
				l0,0c3.6,3.6,8.4,5.5,13.2,5.5c2.4,0,4.9-0.5,7.2-1.4c7-2.9,11.6-9.7,11.6-17.3V364.4L251.8,256l-69.9-57.3l-99.3-81.4l-8.7-7.5
				C70.1,106.6,65.2,104.9,60.3,104.9"/>
		</defs>
		<clipPath id="SVGID_8_">
			<use xlink:href="#SVGID_7_"  style="overflow:visible;"/>
		</clipPath>
		<g transform="matrix(1 0 0 1 0 3.051758e-05)" style="clip-path:url(#SVGID_8_);">
			
				<image style="overflow:visible;" width="407" height="425" xlink:href="3DB92463.jpg"  transform="matrix(0.96 0 0 -0.96 -1.317 511.6454)">
			</image>
		</g>
	</g>
	<g>
		<defs>
			<path id="SVGID_9_" d="M374.6,1.4c-8.3,0-16.4,3.2-22.6,9.3l0,0c3.6-3.6,8.4-5.5,13.2-5.5c2.4,0,4.9,0.5,7.2,1.5
				c7,2.9,11.6,9.8,11.5,17.4v123.5v216.8v123.6c0,7.6-4.6,14.4-11.6,17.3c-2.3,1-4.8,1.4-7.2,1.4c-4.9,0-9.6-1.9-13.2-5.5l0,0
				c6.1,6.1,14.3,9.3,22.6,9.3c0,0,0,0,0,0l0,0c0,0,0,0,0,0c4.6,0,9.2-1,13.5-3c0,0,0.1,0,0.1-0.1c0,0,0,0,0,0c0,0,0.1,0,0.1,0l0,0
				l105.5-50.7C505,451.5,512,440.3,512,428V84.1c0-12.3-7-23.5-18.1-28.9L388.4,4.5C384,2.4,379.3,1.4,374.6,1.4"/>
		</defs>
		<clipPath id="SVGID_10_">
			<use xlink:href="#SVGID_9_"  style="overflow:visible;"/>
		</clipPath>
		<g transform="matrix(1 0 0 1 0 3.051758e-05)" style="clip-path:url(#SVGID_10_);">
			
				<image style="overflow:visible;" width="169" height="533" xlink:href="3DB92460.jpg"  transform="matrix(0.96 0 0 -0.96 351.003 511.6454)">
			</image>
		</g>
	</g>
</g>
</svg>
